<?xml version="1.0" encoding="utf-8"?>
<!-- Generator: Adobe Illustrator 24.2.3, SVG Export Plug-In . SVG Version: 6.00 Build 0)  -->
<svg version="1.1" id="Capa_1" xmlns="http://www.w3.org/2000/svg" xmlns:xlink="http://www.w3.org/1999/xlink" x="0px" y="0px"
	 viewBox="0 0 581.36 477.32" style="enable-background:new 0 0 581.36 477.32;" xml:space="preserve">
<path d="M175.33,270.62c-4.07-17.41-8.03-34.46-12.03-51.49c-14.16-60.24-28.41-120.46-42.37-180.74c-1.19-5.13-2.93-6.88-8.36-6.7
	c-14.23,0.46-28.49,0.18-42.74,0.14C59.4,31.8,52.16,25.09,52.29,15.68c0.13-9.22,7.25-15.64,17.5-15.65
	C89.84,0,109.88,0,129.93,0.03c10.11,0.02,15.47,4.38,17.84,14.4c3.51,14.81,7.17,29.59,10.4,44.46c0.84,3.89,2.37,4.87,6.22,4.86
	c105.37-0.11,210.74-0.1,316.11-0.08c23.31,0.01,42.15,13.96,47.26,36.26c1.68,7.32,1.74,15.67,0.09,23
	c-10.63,47.13-21.9,94.11-33.06,141.11c-5.68,23.93-23.81,38.26-48.33,38.26c-88.14,0.03-176.28,0.04-264.42-0.04
	c-6.59-0.01-12.12,1.67-15.84,7.38c-6.53,10.02,0.11,23.4,12.1,24.42c1.81,0.15,3.64,0.07,5.46,0.07c87.31,0,174.63,0,261.94,0
	c1.82,0,3.65-0.08,5.47,0.06c8.11,0.65,14.49,7.42,14.67,15.47c0.18,8.26-6.14,15.38-14.42,16.21c-1.15,0.11-2.32,0.08-3.48,0.08
	c-89.14,0-178.27,0.03-267.41-0.02c-22.32-0.01-40.66-13.45-46.75-33.94c-8.14-27.41,9.32-55.61,37.46-60.53
	C172.49,271.26,173.72,270.96,175.33,270.62z M167.08,95.48c0.25,1.62,0.35,2.77,0.61,3.88c13.17,55.87,26.4,111.72,39.44,167.61
	c0.8,3.41,2.5,3.55,5.2,3.55c78.01-0.04,156.03-0.02,234.04-0.04c9.82,0,15.24-4.39,17.54-14.11
	c10.89-46.04,21.76-92.08,32.6-138.13c3.37-14.31-3.46-22.77-18.27-22.77c-101.87,0-203.73,0-305.6,0
	C170.88,95.48,169.09,95.48,167.08,95.48z"/>
<path d="M274.95,429.75c-0.06,26.3-21.47,47.58-47.85,47.57c-26.21,0-47.7-21.63-47.55-47.86c0.15-26.34,21.5-47.57,47.86-47.57
	C253.61,381.88,275.01,403.42,274.95,429.75z M227.32,445.48c8.67-0.04,15.76-7.14,15.81-15.83c0.05-8.61-7.11-15.87-15.71-15.93
	c-8.89-0.06-16.16,7.22-16.06,16.09C211.47,438.47,218.65,445.52,227.32,445.48z"/>
<path d="M449.92,429.87c-0.11,26.27-21.57,47.5-47.97,47.45c-26.18-0.05-47.62-21.74-47.43-47.99c0.19-26.32,21.61-47.5,47.98-47.45
	C428.69,381.93,450.02,403.51,449.92,429.87z M402.15,445.48c8.67,0.03,15.82-7,15.95-15.69c0.13-8.61-6.98-15.94-15.57-16.08
	c-8.89-0.14-16.23,7.08-16.2,15.94C386.37,438.33,393.48,445.45,402.15,445.48z"/>
</svg>
